# AST/ASF file generated using VICON BodyLanguage
# -----------------------------------------------
:version 1.10
:name VICON
:units
  mass 1.0
  length 0.45
  angle deg
:documentation
   .ast/.asf automatically generated from VICON data using
   VICON BodyBuilder and BodyLanguage model FoxedUp or BRILLIANT.MOD
:root
   order TX TY TZ RX RY RZ
   axis XYZ
   position 0 0 0  
   orientation 0 0 0 
:bonedata
  begin
     id 1 
     name lhipjoint
     direction 0.577973 -0.728611 0.367523 
     length 2.48544 
     axis 0 0 0  XYZ
  end
  begin
     id 2 
     name lfemur
     direction 0.34202 -0.939693 0  
     length 7.1921  
     axis 0 0 20  XYZ
    dof rx ry rz
    limits (-160.0 20.0)
           (-70.0 70.0)
           (-60.0 70.0)
  end
  begin
     id 3 
     name ltibia
     direction 0.34202 -0.939693 0   
     length 7.71059   
     axis 0 0 20   XYZ
    dof rx
    limits (-10.0 170.0)
  end
  begin
     id 4 
     name lfoot
     direction 0.089538 -0.246004 0.965124   
     length 2.19909   
     axis -90 7.62852e-016 20   XYZ
    dof rx rz
    limits (-45.0 90.0)
           (-70.0 20.0)
  end
  begin
     id 5 
     name ltoes
     direction 1.53544e-011 -4.21829e-011 1   
     length 1.10116   
     axis -90 7.62852e-016 20   XYZ
    dof rx
    limits (-90.0 20.0)
  end
  begin
     id 6 
     name rhipjoint
     direction -0.554414 -0.743062 0.374812   
     length 2.4371  
     axis 0 0 0  XYZ 
  end
  begin
     id 7 
     name rfemur
     direction -0.34202 -0.939693 0   
     length 7.47254   
     axis 0 0 -20   XYZ
    dof rx ry rz
    limits (-160.0 20.0)
           (-70.0 70.0)
           (-70.0 60.0)
  end
  begin
     id 8 
     name rtibia
     direction -0.34202 -0.939693 0   
     length 7.65855   
     axis 0 0 -20   XYZ
    dof rx
    limits (-10.0 170.0)
 end
 begin
     id 9 
     name rfoot
     direction -0.133779 -0.367555 0.92033   
     length 2.43006  
     axis -90 -7.62852e-016 -20   XYZ
    dof rx rz
    limits (-45.0 90.0)
           (-20.0 70.0)
  end
  begin
     id 10 
     name rtoes
     direction -1.53563e-011 -4.21889e-011 1   
     length 1.19625   
     axis -90 -7.62852e-016 -20   XYZ
    dof rx
    limits (-90.0 20.0)
  end
  begin
     id 11 
     name lowerback
     direction 0.0249066 0.998043 -0.0573585   
     length 2.08485   
     axis 0 0 0   XYZ
    dof rx ry rz
    limits (-20.0 45.0)
           (-30.0 30.0)
           (-30.0 30.0)
  end
  begin
     id 12 
     name upperback
     direction 0.0237884 0.999673 0.00943178   
     length 2.08515   
     axis 0 0 0   XYZ
    dof rx ry rz
    limits (-20.0 45.0)
           (-30.0 30.0)
           (-30.0 30.0)
  end
  begin
     id 13 
     name thorax
     direction 0.0106671 0.999301 0.0358174   
     length 2.09037   
     axis 0 0 0   XYZ
    dof rx ry rz
    limits (-20.0 45.0)
           (-30.0 30.0)
           (-30.0 30.0)
  end
  begin
     id 14 
     name lowerneck
     direction -0.0580016 0.987052 0.149546   
     length 1.84454   
     axis 0 0 0   XYZ
    dof rx ry rz
    limits (-20.0 45.0)
           (-30.0 30.0)
           (-30.0 30.0)
  end
  begin
     id 15 
     name upperneck
     direction 0.079456 0.981963 -0.171567   
     length 1.88141   
     axis 0 0 0   XYZ
    dof rx ry rz
    limits (-20.0 45.0)
           (-30.0 30.0)
           (-30.0 30.0)
  end
  begin
     id 16
     name head
     direction 0.0262167 0.9967 -0.0768276  
     length 1.89541  
     axis 0 0 0   XYZ
    dof rx ry rz
    limits (-20.0 45.0)
           (-30.0 30.0)
           (-30.0 30.0)
  end
  begin
     id 17 
     name lclavicle
     direction 0.946135 0.322134 -0.0325326  
     length 3.949  
     axis 0 0 0   XYZ
    dof ry rz
    limits (-20.0 10.0)
           (0.0 20.0)
  end
  begin
     id 18 
     name lhumerus
     direction 1 -4.48964e-011 1.94005e-028   
     length 5.10995   
     axis 180 -30 -90   XYZ
    dof rx ry rz
    limits (-60.0 90.0)
           (-90.0 90.0)
           (-90.0 90.0)
  end
  begin
     id 19
     name lradius
     direction 1 -4.48976e-011 2.87852e-027   
     length 3.21207   
     axis 180 -30 -90   XYZ
    dof rx
    limits (-10.0 170.0)
  end
  begin
     id 20
     name lwrist
     direction 1 -4.48963e-011 1.9975e-027   
     length 1.60604   
     axis 2.96054e-016 90 90   XYZ
    dof ry
    limits (-180.0 0.0)
 end
  begin
     id 21 
     name lhand
     direction 1 -4.48919e-011 4.00227e-027   
     length 0.63349   
     axis -2.5488e-015 90 90   XYZ
    dof rx rz
    limits (-90.0 90.0)
           (-45.0 45.0)
  end
  begin
     id 22 
     name lfingers
     direction 1 -4.49037e-011 7.9652e-027   
     length 0.510736   
     axis -5.0975e-015 90 90   XYZ
    dof rx
    limits (0.0 90.0)
  end
  begin
     id 23
     name lthumb
     direction 0.707107 -6.34922e-011 0.707107   
     length 0.733318   
     axis -90 45 -4.48553e-014   XYZ
    dof rx rz
    limits (-45.0 45.0)
           (-45.0 45.0)
  end
  begin
     id 24 
     name rclavicle
     direction -0.940085 0.328911 -0.0897654   
     length 3.93848  
     axis 0 0 0   XYZ 
    dof ry rz
    limits (-10.0 20.0)
           (-20.0 0.0)
  end
  begin
     id 25 
     name rhumerus
     direction -1 -4.48958e-011 3.02044e-027  
     length 5.25109   
     axis 180 30 90   XYZ
    dof rx ry rz
    limits (-90.0 60.0)
           (-90.0 90.0)
           (-90.0 90.0)
  end
  begin
     id 26 
     name rradius
     direction -1 -4.4897e-011 9.78352e-028   
     length 3.28364   
     axis 180 30 90   XYZ
    dof rx
    limits (-10.0 170.0)
  end
  begin
     id 27 
     name rwrist
     direction -1 -4.48943e-011 1.99918e-027   
     length 1.64182   
     axis 2.96054e-016 -90 -90   XYZ
    dof ry
    limits (-180.0 0.0)
  end
  begin
     id 28
     name rhand
     direction -1 -4.49024e-011 3.98478e-027   
     length 0.599745   
     axis -2.5488e-015 -90 -90   XYZ
    dof rx rz
    limits (-90.0 90.0)
           (-45.0 45.0)
  end
  begin
     id 29
     name rfingers
     direction -1 -4.48914e-011 8.00621e-027   
     length 0.48353   
     axis -5.0975e-015 -90 -90   XYZ
    dof rx
    limits (0.0 90.0)
  end
  begin
     id 30
     name rthumb
     direction -0.707107 -6.34992e-011 0.707107   
     length 0.694255   
     axis -90 -45 4.48553e-014   XYZ
    dof rx rz
    limits (-45.0 45.0)
           (-45.0 45.0)
  end
:hierarchy
  begin
    root lhipjoint rhipjoint lowerback
    lhipjoint lfemur
    lfemur ltibia
    ltibia lfoot
    lfoot ltoes
    rhipjoint rfemur
    rfemur rtibia
    rtibia rfoot
    rfoot rtoes
    lowerback upperback
    upperback thorax
    thorax lowerneck lclavicle rclavicle
    lowerneck upperneck
    upperneck head
    lclavicle lhumerus
    lhumerus lradius
    lradius lwrist
    lwrist lhand lthumb
    lhand lfingers
    rclavicle rhumerus
    rhumerus rradius
    rradius rwrist
    rwrist rhand rthumb
    rhand rfingers
  end

#!OML:ASF E:\CV Data\Top Level 1\Subject 1\Session 1\player.ASF
:FULLY-SPECIFIED
:DEGREES
660
root 7.55211 17.0905 -8.54894 12.522 -55.5009 -9.58717
lowerback 8.98361 2.02592 -0.0387004
upperback -0.171419 2.8151 2.60774
thorax -5.35542 1.41764 2.36268
lowerneck -18.0209 3.51267 -5.60435
upperneck 17.8477 5.06806 5.97062
head 8.18935 2.6353 3.53362
rclavicle -6.55865e-014 1.19271e-015
rhumerus 138.041 157.487 83.9489
rradius 72.9903
rwrist -34.1275
rhand -24.4135 12.5199
rfingers 7.12502
rthumb 2.07797 -17.4498
lclavicle -6.55865e-014 1.19271e-015
lhumerus -42.182 -25.7719 104.654
lradius 79.9878
lwrist 14.5873
lhand -21.7051 14.1494
lfingers 7.12502
lthumb 4.69349 44.0774
rfemur -27.207 -6.79333 23.9773
rtibia 50.2706
rfoot -20.6707 -18.8796
rtoes 7.20803
lfemur -10.9107 4.5028 -20.4348
ltibia 34.6483
lfoot -20.704 17.3279
ltoes -0.378484
661
root 7.53391 17.0896 -8.58276 12.9069 -56.2959 -9.94186
lowerback 8.87519 2.15576 -0.105764
upperback -0.232899 2.98216 2.61217
thorax -5.37004 1.50281 2.38463
lowerneck -18.0408 3.67382 -5.52737
upperneck 17.8295 5.2914 5.8693
head 8.17749 2.73607 3.51137
rclavicle -9.50936e-014 4.01545e-014
rhumerus 137.856 156.282 83.1074
rradius 73.6691
rwrist -34.6618
rhand -23.8636 12.3229
rfingers 7.12502
rthumb 2.60913 -17.6409
lclavicle -9.50936e-014 4.01545e-014
lhumerus -42.4147 -26.1506 105.033
lradius 80.1705
lwrist 14.8994
lhand -21.3975 14.4066
lfingers 7.12502
lthumb 4.99055 44.3279
rfemur -26.9012 -6.60733 24.2085
rtibia 49.6201
rfoot -21.0218 -18.1993
rtoes 6.63613
lfemur -10.989 4.97652 -20.2683
ltibia 34.77
lfoot -20.7122 17.6615
ltoes -0.605546
662
root 7.51432 17.0893 -8.61552 13.3066 -57.0586 -10.2981
lowerback 8.73753 2.26561 -0.146735
upperback -0.288181 3.1242 2.60292
thorax -5.35861 1.5747 2.38241
lowerneck -18.059 3.84013 -5.43954
upperneck 17.8015 5.51737 5.77479
head 8.16239 2.8397 3.48957
rclavicle 1.12028e-013 1.30701e-014
rhumerus 137.705 155.097 82.2754
rradius 74.3225
rwrist -35.1389
rhand -23.2436 12.1297
rfingers 7.12502
rthumb 3.20783 -17.8259
lclavicle 1.12028e-013 1.30701e-014
lhumerus -42.613 -26.535 105.383
lradius 80.3458
lwrist 15.275
lhand -21.1339 14.7447
lfingers 7.12502
lthumb 5.2451 44.6598
rfemur -26.6253 -6.43528 24.4446
rtibia 48.9207
rfoot -21.3398 -17.6139
rtoes 6.59249
lfemur -11.068 5.40454 -20.1107
ltibia 34.884
lfoot -20.7154 18.0199
ltoes -0.795196
663
root 7.49393 17.0893 -8.64671 13.7176 -57.7571 -10.6514
lowerback 8.57614 2.34179 -0.131287
upperback -0.341989 3.22579 2.57245
thorax -5.32596 1.62475 2.33307
lowerneck -18.0765 4.0137 -5.33781
upperneck 17.7701 5.74648 5.69382
head 8.14625 2.94726 3.47029
rclavicle 3.2141e-014 4.17448e-015
rhumerus 137.583 153.944 81.4451
rradius 74.9493
rwrist -35.5097
rhand -22.5661 11.951
rfingers 7.12502
rthumb 3.8621 -17.9937
lclavicle 3.2141e-014 4.17448e-015
lhumerus -42.7871 -26.9173 105.693
lradius 80.5208
lwrist 15.7188
lhand -20.8598 15.1382
lfingers 7.12502
lthumb 5.50971 45.0466
rfemur -26.3821 -6.32735 24.6949
rtibia 48.1979
rfoot -21.6217 -17.1443
rtoes 6.90641
lfemur -11.155 5.76186 -19.9594
ltibia 34.9921
lfoot -20.7113 18.3958
ltoes -1.02978
664
root 7.47303 17.0899 -8.67605 14.1202 -58.3733 -10.984
lowerback 8.39368 2.37822 -0.0586135
upperback -0.392904 3.27861 2.52106
thorax -5.27139 1.64879 2.23752
lowerneck -18.0878 4.19515 -5.22354
upperneck 17.7329 5.98047 5.62289
head 8.12723 3.05911 3.45246
rclavicle -9.36369e-014 8.44835e-015
rhumerus 137.491 152.831 80.621
rradius 75.5485
rwrist -35.7436
rhand -21.869 11.8077
rfingers 7.12502
rthumb 4.53525 -18.1237
lclavicle -9.36369e-014 8.44835e-015
lhumerus -42.9374 -27.2815 105.969
lradius 80.7019
lwrist 16.2435
lhand -20.5893 15.5505
lfingers 7.12502
lthumb 5.77086 45.452
rfemur -26.1637 -6.3313 24.9577
rtibia 47.4725
rfoot -21.8669 -16.7632
rtoes 7.41034
lfemur -11.2541 6.03164 -19.8184
ltibia 35.1007
lfoot -20.7038 18.7775
ltoes -1.24329
665
root 7.45167 17.0913 -8.7036 14.5109 -58.9097 -11.2992
lowerback 8.21431 2.38481 0.0414545
upperback -0.451781 3.29445 2.47231
thorax -5.22371 1.6539 2.13425
lowerneck -18.0875 4.3784 -5.11667
upperneck 17.705 6.21761 5.55432
head 8.10923 3.17196 3.43686
rclavicle -6.32384e-014 -2.09966e-015
rhumerus 137.4 151.763 79.8298
rradius 76.1267
rwrist -35.8159
rhand -21.21 11.7116
rfingers 7.12502
rthumb 5.1716 -18.2053
lclavicle -6.32384e-014 -2.09966e-015
lhumerus -43.0745 -27.6444 106.249
lradius 80.8901
lwrist 16.891
lhand -20.3051 15.9735
lfingers 7.12502
lthumb 6.04526 45.8673
rfemur -25.9631 -6.45788 25.2384
rtibia 46.7698
rfoot -22.0693 -16.4359
rtoes 7.95729
lfemur -11.3607 6.21589 -19.6801
ltibia 35.2093
lfoot -20.704 19.1482
ltoes -1.39193
666
root 7.42959 17.0941 -8.72995 14.8842 -59.3885 -11.5951
lowerback 8.04184 2.36995 0.151072
upperback -0.51782 3.28281 2.42897
thorax -5.18604 1.64526 2.03456
lowerneck -18.0756 4.56418 -5.01639
upperneck 17.6866 6.45895 5.48713
head 8.09228 3.28626 3.42313
rclavicle 2.77134e-014 -2.50344e-014
rhumerus 137.31 150.74 79.0708
rradius 76.6806
rwrist -35.7057
rhand -20.6579 11.6754
rfingers 7.12502
rthumb 5.70466 -18.2278
lclavicle 2.77134e-014 -2.50344e-014
lhumerus -43.1965 -27.9404 106.539
lradius 81.0861
lwrist 17.6089
lhand -19.9833 16.3781
lfingers 7.12502
lthumb 6.35592 46.2628
rfemur -25.775 -6.68329 25.5314
rtibia 46.1095
rfoot -22.2341 -16.1202
rtoes 8.50813
lfemur -11.4702 6.34537 -19.5403
ltibia 35.3152
lfoot -20.7331 19.4701
ltoes -1.37597
